<svg width="28" height="27" viewBox="0 0 28 27" fill="none" xmlns="http://www.w3.org/2000/svg">
<g id="Frame 7884">
<g clip-path="url(#clip0_5253_59568)">
<rect x="0.666504" y="0.136719" width="26.6667" height="26.6667" rx="13.3333" fill="white"/>
<path id="Vector" d="M27.4961 13.5515C27.4961 6.14273 21.4901 0.136719 14.0813 0.136719C6.67252 0.136719 0.666504 6.14273 0.666504 13.5515C0.666504 20.2472 5.57208 25.797 11.9853 26.8034V17.4293H8.57915V13.5515H11.9853V10.5961C11.9853 7.23399 13.988 5.37688 17.0522 5.37688C18.5195 5.37688 20.0551 5.63889 20.0551 5.63889V8.94019H18.3636C16.6972 8.94019 16.1774 9.97434 16.1774 11.0363V13.5515H19.8979L19.3031 17.4293H16.1774V26.8034C22.5906 25.797 27.4961 20.2472 27.4961 13.5515Z" fill="#1877F2"/>
</g>
</g>
<defs>
<clipPath id="clip0_5253_59568">
<rect x="0.666504" y="0.136719" width="26.6667" height="26.6667" rx="13.3333" fill="white"/>
</clipPath>
</defs>
</svg>
