<svg width="27" height="28" viewBox="0 0 27 28" fill="none" xmlns="http://www.w3.org/2000/svg">
<g id="Group 7553">
<path id="Vector" d="M13.343 0.469727C7.77423 0.469727 6.14558 0.475471 5.82901 0.501733C4.6862 0.596728 3.97508 0.776663 3.20035 1.16238C2.6033 1.45886 2.13244 1.80252 1.66772 2.28426C0.821392 3.1628 0.308464 4.24365 0.122784 5.52843C0.0325082 6.15215 0.00624632 6.27936 0.000911872 9.46525C-0.00113984 10.5272 0.000911872 11.9248 0.000911872 13.7995C0.000911872 19.3637 0.00706701 20.9907 0.0337393 21.3067C0.126066 22.4187 0.300462 23.1184 0.66977 23.8837C1.37556 25.3486 2.72353 26.4483 4.31156 26.8586C4.86142 27.0002 5.46872 27.0782 6.24838 27.1151C6.5787 27.1295 9.94556 27.1397 13.3145 27.1397C16.6834 27.1397 20.0523 27.1356 20.3744 27.1192C21.2772 27.0767 21.8014 27.0064 22.381 26.8566C23.9793 26.4442 25.3026 25.3609 26.0228 23.8755C26.3849 23.1286 26.5685 22.4023 26.6516 21.3484C26.6697 21.1186 26.6773 17.4548 26.6773 13.796C26.6773 10.1366 26.6691 6.4796 26.651 6.24981C26.5669 5.17882 26.3833 4.45867 26.0094 3.69748C25.7027 3.07438 25.3621 2.60905 24.8677 2.13325C23.9852 1.29041 22.906 0.777483 21.62 0.592009C20.9969 0.501938 20.8728 0.475266 17.6844 0.469727H13.343Z" fill="url(#paint0_radial_5253_59571)"/>
<g id="Group 7551">
<g id="Group 7552">
<path id="Vector_2" d="M13.343 0.469727C7.77423 0.469727 6.14558 0.475471 5.82901 0.501733C4.6862 0.596728 3.97508 0.776663 3.20035 1.16238C2.6033 1.45886 2.13244 1.80252 1.66772 2.28426C0.821392 3.1628 0.308464 4.24365 0.122784 5.52843C0.0325082 6.15215 0.00624632 6.27936 0.000911872 9.46525C-0.00113984 10.5272 0.000911872 11.9248 0.000911872 13.7995C0.000911872 19.3637 0.00706701 20.9907 0.0337393 21.3067C0.126066 22.4187 0.300462 23.1184 0.66977 23.8837C1.37556 25.3486 2.72353 26.4483 4.31156 26.8586C4.86142 27.0002 5.46872 27.0782 6.24838 27.1151C6.5787 27.1295 9.94556 27.1397 13.3145 27.1397C16.6834 27.1397 20.0523 27.1356 20.3744 27.1192C21.2772 27.0767 21.8014 27.0064 22.381 26.8566C23.9793 26.4442 25.3026 25.3609 26.0228 23.8755C26.3849 23.1286 26.5685 22.4023 26.6516 21.3484C26.6697 21.1186 26.6773 17.4548 26.6773 13.796C26.6773 10.1366 26.6691 6.4796 26.651 6.24981C26.5669 5.17882 26.3833 4.45867 26.0094 3.69748C25.7027 3.07438 25.3621 2.60905 24.8677 2.13325C23.9852 1.29041 22.906 0.777483 21.62 0.592009C20.9969 0.501938 20.8728 0.475266 17.6844 0.469727H13.343Z" fill="url(#paint1_radial_5253_59571)"/>
</g>
<path id="Vector_3" d="M13.3368 3.95801C10.6622 3.95801 10.3266 3.9697 9.27608 4.01751C8.22766 4.06552 7.51202 4.2315 6.88584 4.47504C6.23811 4.72658 5.68866 5.06306 5.14127 5.61066C4.59346 6.15806 4.25698 6.70751 4.00462 7.35503C3.76047 7.98142 3.59428 8.69726 3.54709 9.74527C3.5001 10.7957 3.48779 11.1316 3.48779 13.8062C3.48779 16.4808 3.49969 16.8155 3.54729 17.8659C3.59551 18.9144 3.76149 19.63 4.00482 20.2562C4.25657 20.9039 4.59305 21.4534 5.14065 22.0008C5.68784 22.5486 6.23729 22.8859 6.88461 23.1374C7.5112 23.381 8.22704 23.5469 9.27526 23.5949C10.3257 23.6427 10.6612 23.6544 13.3356 23.6544C16.0104 23.6544 16.3451 23.6427 17.3955 23.5949C18.444 23.5469 19.1604 23.381 19.787 23.1374C20.4345 22.8859 20.9832 22.5486 21.5303 22.0008C22.0782 21.4534 22.4146 20.9039 22.667 20.2564C22.9091 19.63 23.0753 18.9142 23.1245 17.8662C23.1717 16.8157 23.184 16.4808 23.184 13.8062C23.184 11.1316 23.1717 10.796 23.1245 9.74548C23.0753 8.69705 22.9091 7.98141 22.667 7.35523C22.4146 6.70751 22.0782 6.15806 21.5303 5.61066C20.9825 5.06285 20.4347 4.72637 19.7864 4.47504C19.1586 4.2315 18.4425 4.06552 17.3941 4.01751C16.3436 3.9697 16.0092 3.95801 13.3338 3.95801H13.3368ZM12.4534 5.73274C12.7156 5.73233 13.0081 5.73274 13.3368 5.73274C15.9663 5.73274 16.278 5.74218 17.3163 5.78937C18.2765 5.83327 18.7977 5.99372 19.1448 6.12851C19.6044 6.30701 19.9321 6.52039 20.2765 6.86508C20.6212 7.20977 20.8346 7.53804 21.0135 7.99762C21.1483 8.34436 21.309 8.8655 21.3527 9.8257C21.3999 10.8639 21.4101 11.1757 21.4101 13.804C21.4101 16.4322 21.3999 16.7441 21.3527 17.7822C21.3088 18.7424 21.1483 19.2636 21.0135 19.6103C20.835 20.0699 20.6212 20.3971 20.2765 20.7416C19.9319 21.0863 19.6046 21.2997 19.1448 21.4782C18.7981 21.6136 18.2765 21.7736 17.3163 21.8175C16.2782 21.8647 15.9663 21.875 13.3368 21.875C10.7072 21.875 10.3955 21.8647 9.35733 21.8175C8.39713 21.7732 7.87599 21.6128 7.52864 21.478C7.06906 21.2995 6.74078 21.0861 6.39609 20.7414C6.05141 20.3967 5.83803 20.0693 5.65912 19.6095C5.52432 19.2628 5.36367 18.7416 5.31997 17.7814C5.27278 16.7433 5.26334 16.4314 5.26334 13.8015C5.26334 11.1716 5.27278 10.8614 5.31997 9.82324C5.36388 8.86304 5.52432 8.3419 5.65912 7.99475C5.83762 7.53517 6.05141 7.20689 6.39609 6.86221C6.74078 6.51752 7.06906 6.30414 7.52864 6.12523C7.87579 5.98982 8.39713 5.82978 9.35733 5.78567C10.2658 5.74464 10.6179 5.73233 12.4534 5.73028V5.73274ZM18.5937 7.36795C17.9413 7.36795 17.4119 7.89668 17.4119 8.54933C17.4119 9.20177 17.9413 9.73112 18.5937 9.73112C19.2462 9.73112 19.7755 9.20177 19.7755 8.54933C19.7755 7.89688 19.2462 7.36754 18.5937 7.36754V7.36795ZM13.3368 8.74876C10.5438 8.74876 8.27936 11.0132 8.27936 13.8062C8.27936 16.5992 10.5438 18.8627 13.3368 18.8627C16.1298 18.8627 18.3935 16.5992 18.3935 13.8062C18.3935 11.0132 16.1298 8.74876 13.3368 8.74876ZM13.3368 10.5235C15.1497 10.5235 16.6196 11.9931 16.6196 13.8062C16.6196 15.6191 15.1497 17.089 13.3368 17.089C11.5237 17.089 10.0541 15.6191 10.0541 13.8062C10.0541 11.9931 11.5237 10.5235 13.3368 10.5235Z" fill="white"/>
</g>
</g>
<defs>
<radialGradient id="paint0_radial_5253_59571" cx="0" cy="0" r="1" gradientUnits="userSpaceOnUse" gradientTransform="translate(7.08618 29.1939) rotate(-90) scale(26.4319 24.5905)">
<stop stop-color="#FFDD55"/>
<stop offset="0.1" stop-color="#FFDD55"/>
<stop offset="0.5" stop-color="#FF543E"/>
<stop offset="1" stop-color="#C837AB"/>
</radialGradient>
<radialGradient id="paint1_radial_5253_59571" cx="0" cy="0" r="1" gradientUnits="userSpaceOnUse" gradientTransform="translate(-4.46858 2.39099) rotate(78.6776) scale(11.8153 48.7155)">
<stop stop-color="#3771C8"/>
<stop offset="0.128" stop-color="#3771C8"/>
<stop offset="1" stop-color="#6600FF" stop-opacity="0"/>
</radialGradient>
</defs>
</svg>
