<svg width="32" height="33" viewBox="0 0 32 33" fill="none" xmlns="http://www.w3.org/2000/svg">
<g id="Footer Social Media Icons">
<rect id="Rectangle 5" x="4" y="4.46973" width="25" height="25" rx="2" fill="white"/>
<path id="Icon" d="M27.7012 3.46973H4.96876C4.44662 3.46973 3.94585 3.67715 3.57664 4.04636C3.20742 4.41558 3 4.91634 3 5.43849V28.171C3 28.6931 3.20742 29.1939 3.57664 29.5631C3.94585 29.9323 4.44662 30.1397 4.96876 30.1397H27.7012C28.2234 30.1397 28.7241 29.9323 29.0934 29.5631C29.4626 29.1939 29.67 28.6931 29.67 28.171V5.43849C29.67 4.91634 29.4626 4.41558 29.0934 4.04636C28.7241 3.67715 28.2234 3.46973 27.7012 3.46973ZM10.9491 26.1892H6.93938V13.4525H10.9491V26.1892ZM8.94148 11.6874C8.48665 11.6849 8.04276 11.5476 7.66584 11.293C7.28893 11.0384 6.99588 10.6779 6.82368 10.2569C6.65147 9.83591 6.60784 9.37334 6.69827 8.92758C6.78871 8.48182 7.00917 8.07283 7.33183 7.75224C7.65448 7.43165 8.06487 7.21382 8.51121 7.12625C8.95754 7.03868 9.41982 7.08528 9.83969 7.26018C10.2596 7.43509 10.6182 7.73044 10.8704 8.10899C11.1226 8.48753 11.2569 8.93229 11.2566 9.38713C11.2609 9.69165 11.2038 9.99392 11.0888 10.2759C10.9738 10.5579 10.8032 10.8139 10.5871 11.0285C10.3711 11.2432 10.1141 11.4121 9.83133 11.5253C9.5486 11.6385 9.24597 11.6937 8.94148 11.6874ZM25.7288 26.2003H21.7209V19.2421C21.7209 17.19 20.8485 16.5565 19.7225 16.5565C18.5334 16.5565 17.3666 17.453 17.3666 19.2939V26.2003H13.3568V13.4617H17.2129V15.2268H17.2647C17.6518 14.4433 19.0076 13.1043 21.0763 13.1043C23.3137 13.1043 25.7306 14.4322 25.7306 18.3216L25.7288 26.2003Z" fill="#0A66C2"/>
</g>
</svg>
