<svg width="27" height="28" viewBox="0 0 27 28" fill="none" xmlns="http://www.w3.org/2000/svg">
<g id="Group 7546">
<path id="Icon" d="M13.335 27.1178C20.6997 27.1178 26.67 21.1524 26.67 13.7938C26.67 6.4351 20.6997 0.469727 13.335 0.469727C5.97028 0.469727 0 6.4351 0 13.7938C0 21.1524 5.97028 27.1178 13.335 27.1178Z" fill="white"/>
<path id="Icon_2" d="M13.335 0.469727C5.97057 0.469727 0 6.43538 0 13.7938C0 19.4414 3.5121 24.2666 8.47294 26.2076C8.35221 25.1548 8.25343 23.5318 8.51684 22.3804C8.7583 21.3386 10.0753 15.7567 10.0753 15.7567C10.0753 15.7567 9.68022 14.9562 9.68022 13.7828C9.68022 11.9295 10.7558 10.5477 12.0948 10.5477C13.2362 10.5477 13.785 11.4031 13.785 12.423C13.785 13.5635 13.0606 15.2742 12.6765 16.8643C12.3582 18.1912 13.346 19.2769 14.652 19.2769C17.0227 19.2769 18.8446 16.7766 18.8446 13.1796C18.8446 9.98846 16.5508 7.7623 13.2691 7.7623C9.47169 7.7623 7.2437 10.6026 7.2437 13.5415C7.2437 14.682 7.68272 15.9103 8.23148 16.5792C8.34124 16.7108 8.35221 16.8314 8.31928 16.963C8.22051 17.3797 7.99003 18.2899 7.94612 18.4764C7.89125 18.7176 7.74857 18.7725 7.49614 18.6518C5.82789 17.8732 4.78523 15.4497 4.78523 13.4867C4.78523 9.28662 7.83637 5.42649 13.5984 5.42649C18.219 5.42649 21.8189 8.71637 21.8189 13.1248C21.8189 17.7197 18.9214 21.4153 14.9045 21.4153C13.5545 21.4153 12.2814 20.7135 11.8533 19.88C11.8533 19.88 11.1838 22.4242 11.0192 23.0493C10.7229 24.2117 9.9107 25.6593 9.36194 26.5475C10.6131 26.9314 11.9302 27.1397 13.3131 27.1397C20.6775 27.1397 26.6481 21.1741 26.6481 13.8157C26.67 6.43538 20.6994 0.469727 13.335 0.469727Z" fill="#E60019"/>
</g>
</svg>
