<svg width="27" height="28" viewBox="0 0 27 28" fill="none" xmlns="http://www.w3.org/2000/svg">
<g id="Group 7540">
<path id="Vector" d="M13.3333 27.1364C20.6971 27.1364 26.6667 21.1669 26.6667 13.8031C26.6667 6.43926 20.6971 0.469727 13.3333 0.469727C5.96954 0.469727 0 6.43926 0 13.8031C0 21.1669 5.96954 27.1364 13.3333 27.1364Z" fill="#FF4B20"/>
<path id="Vector_2" d="M14.2231 7.43555C13.9564 8.68 13.6897 9.83555 13.512 11.08C15.112 11.1689 16.6231 11.6133 17.9564 12.5022C18.312 12.1467 18.7564 12.0578 19.2009 12.0578C19.912 12.0578 20.6231 12.5911 20.8009 13.3911C20.9786 14.1022 20.6231 14.8133 20.0009 15.2578C19.912 15.3467 19.912 15.3467 19.912 15.4356C20.0009 16.9467 19.3786 18.0133 18.2231 18.9022C17.1564 19.7022 16.0009 20.1467 14.7564 20.4133C13.1564 20.68 11.5564 20.5911 10.0453 19.9689C8.88974 19.5244 7.82308 18.9022 7.11197 17.8356C6.48974 17.0356 6.31197 16.2356 6.31197 15.3467C6.31197 15.1689 6.31197 15.08 6.13419 15.08C5.51197 14.6356 5.15641 13.8356 5.42308 13.1244C5.68974 12.3244 6.40085 11.88 7.20085 11.9689C7.55641 11.9689 7.82308 12.1467 8.08974 12.3244C8.17863 12.4133 8.26752 12.4133 8.35641 12.3244C9.33419 11.7022 10.4009 11.2578 11.5564 11.08C11.8231 10.9911 12.1786 10.9911 12.5342 10.9911C12.8897 10.9911 12.8009 10.9911 12.8897 10.7244C13.1564 9.48 13.4231 8.23555 13.6897 7.08C13.7786 6.72444 13.9564 6.63555 14.2231 6.72444C15.112 6.90222 15.912 7.08 16.8009 7.25778C16.8897 7.25778 16.9786 7.25778 17.0675 7.16889C17.4231 6.72444 17.9564 6.63555 18.4897 6.81333C18.9342 7.08 19.2009 7.61333 19.112 8.05778C19.0231 8.59111 18.4897 9.03555 17.9564 9.03555C17.4231 9.03555 16.9786 8.68 16.8009 8.14667C16.8009 8.05778 16.712 7.96889 16.6231 7.96889C15.8231 7.70222 15.0231 7.52444 14.2231 7.43555ZM16.8897 14.8133C16.8897 14.1911 16.3564 13.6578 15.7342 13.6578C15.112 13.6578 14.5786 14.1911 14.5786 14.8133C14.5786 15.6133 15.112 15.9689 15.8231 15.9689C16.3564 15.9689 16.8897 15.5244 16.8897 14.8133ZM11.5564 14.7244C11.5564 14.1022 11.0231 13.5689 10.4009 13.5689C9.77863 13.5689 9.2453 14.1022 9.2453 14.7244C9.2453 15.3467 9.77863 15.88 10.4009 15.88C11.0231 15.88 11.5564 15.3467 11.5564 14.7244ZM13.0675 18.9022C13.4231 18.9022 13.6897 18.8133 14.0453 18.8133C14.7564 18.7244 15.2897 18.4578 15.912 18.0133C16.0897 17.9244 16.0897 17.6578 15.912 17.5689C15.7342 17.48 15.6453 17.48 15.5564 17.5689C14.4897 18.28 13.3342 18.3689 12.1786 18.1911C11.6453 18.1022 11.2009 17.8356 10.7564 17.5689C10.5786 17.48 10.4009 17.48 10.312 17.6578C10.2231 17.8356 10.312 17.9244 10.4009 18.1022C11.2009 18.6356 12.0897 18.8133 13.0675 18.9022Z" fill="white"/>
</g>
</svg>
