<svg width="32" height="33" viewBox="0 0 32 33" fill="none" xmlns="http://www.w3.org/2000/svg">
<g id="Group">
<rect id="Rectangle 5" x="3" y="4.46973" width="26" height="25" rx="5" fill="white"/>
<path id="Vector" d="M29.608 8.49361V25.1158C29.608 26.4804 29.1118 27.6588 28.1194 28.6512C27.127 29.6435 25.9486 30.1397 24.5841 30.1397H8.02388C6.65937 30.1397 5.48093 29.6435 4.48856 28.6512C3.49619 27.6588 3 26.4804 3 25.1158V8.49361C3 7.1291 3.49619 5.95066 4.48856 4.95828C5.48093 3.96591 6.65937 3.46973 8.02388 3.46973H24.5841C25.9486 3.46973 27.127 3.96591 28.1194 4.95828C29.1118 5.95066 29.608 7.1291 29.608 8.49361ZM22.6614 26.5424L21.607 23.3792C21.1108 23.6273 20.4906 23.7513 19.8083 23.7513C19.3741 23.7513 19.064 23.6893 18.7539 23.5653C18.4438 23.4412 18.2577 23.2551 18.0716 23.0071C17.9476 22.759 17.8236 22.5729 17.7615 22.3248C17.6995 22.0767 17.6995 21.8286 17.6995 21.5805V14.6959H22.1032V11.3467H17.6995V5.70256H14.4743C14.4123 5.70256 14.3503 5.76459 14.2882 5.88863C14.2262 6.38482 14.1022 6.88101 13.9781 7.37719C13.8541 7.87338 13.606 8.43159 13.2959 9.05182C12.9857 9.67205 12.5516 10.2303 11.9934 10.7264C11.4352 11.2226 10.7529 11.5948 9.9466 11.9049V14.758H12.1794V22.0147C12.1794 22.6969 12.3035 23.3172 12.5516 23.9994C12.7997 24.6817 13.1718 25.3019 13.668 25.9221C14.1642 26.5424 14.8464 27.0386 15.7768 27.4107C16.6451 27.7828 17.6995 27.9689 18.8159 27.9689C19.6222 27.9689 20.4285 27.7828 21.1728 27.5347C21.9791 27.1626 22.4753 26.8525 22.6614 26.5424Z" fill="black"/>
</g>
</svg>
