<svg width="15" height="16" viewBox="0 0 15 16" fill="none" xmlns="http://www.w3.org/2000/svg">
<g id="Digital_Glyph_White 1" clip-path="url(#clip0_5253_59587)">
<path id="Vector" fill-rule="evenodd" clip-rule="evenodd" d="M12.8144 2.64785C11.4045 1.24397 9.52942 0.470439 7.5315 0.469727C3.41462 0.469727 0.0641025 3.80138 0.06267 7.89659C0.0619538 9.20574 0.406103 10.4836 1.05966 11.6097L0 15.4588L3.95932 14.426C5.05013 15.0179 6.27846 15.3295 7.52829 15.3299H7.5315C11.6477 15.3299 14.9986 11.9978 15 7.90264C15.0007 5.91792 14.2247 4.0521 12.8144 2.64821V2.64785ZM7.5315 14.0756H7.529C6.41525 14.0752 5.32267 13.7775 4.36938 13.2151L4.14268 13.0812L1.79308 13.6941L2.42014 11.4159L2.2726 11.1823C1.65127 10.1994 1.32288 9.06328 1.32359 7.89696C1.32502 4.49336 4.10972 1.72404 7.53404 1.72404C9.19208 1.72475 10.7506 2.36758 11.9227 3.53464C13.0948 4.70134 13.7398 6.25268 13.7391 7.90194C13.7376 11.3059 10.953 14.0752 7.5315 14.0752V14.0756ZM10.9365 9.4522C10.7499 9.35926 9.83242 8.9105 9.66121 8.84855C9.49004 8.78656 9.36579 8.75561 9.2415 8.94149C9.11725 9.12742 8.7595 9.54551 8.65063 9.66908C8.54175 9.79301 8.43287 9.80835 8.24629 9.71536C8.05975 9.62242 7.45846 9.42655 6.74546 8.79439C6.19075 8.30221 5.81613 7.69467 5.70729 7.50875C5.59842 7.32286 5.69583 7.22242 5.78892 7.13018C5.87271 7.04685 5.9755 6.9133 6.06896 6.80503C6.16246 6.69676 6.19325 6.61915 6.25554 6.49554C6.31787 6.3716 6.28671 6.26337 6.24017 6.17039C6.19358 6.07745 5.82046 5.16394 5.66467 4.7925C5.51317 4.43068 5.35921 4.47982 5.24496 4.47377C5.13608 4.46842 5.01183 4.46736 4.88721 4.46736C4.76258 4.46736 4.56058 4.51366 4.38942 4.69956C4.21825 4.88544 3.73621 5.33453 3.73621 6.24767C3.73621 7.1608 4.40483 8.04369 4.49829 8.16763C4.59175 8.29156 5.81433 10.1659 7.68621 10.9701C8.13138 11.1613 8.47908 11.2756 8.75017 11.3611C9.19713 11.5025 9.60392 11.4825 9.9255 11.4348C10.284 11.3814 11.0296 10.9857 11.185 10.5523C11.3404 10.1189 11.3404 9.74706 11.2939 9.66978C11.2473 9.5925 11.1227 9.54585 10.9361 9.4529L10.9365 9.4522Z" fill="white"/>
</g>
<defs>
<clipPath id="clip0_5253_59587">
<rect width="15" height="15" fill="white" transform="translate(0 0.469727)"/>
</clipPath>
</defs>
</svg>
