<svg width="166" height="43" viewBox="0 0 166 43" fill="none" xmlns="http://www.w3.org/2000/svg">
<g id="WhatsAppButtonGreenSmall 1" clip-path="url(#clip0_5253_59509)" filter="url(#filter0_dd_5253_59509)">
<path id="Vector" d="M155 2.46973H11C6.58172 2.46973 3 6.05145 3 10.4697V30.4697C3 34.888 6.58172 38.4697 11 38.4697H155C159.418 38.4697 163 34.888 163 30.4697V10.4697C163 6.05145 159.418 2.46973 155 2.46973Z" fill="#25D366"/>
<path id="Vector_2" fill-rule="evenodd" clip-rule="evenodd" d="M24.7886 11.2588C27.2072 11.2705 29.5414 12.2202 31.2874 13.8939C33.0755 15.6081 34.1059 17.9066 34.196 20.3819C34.284 22.7992 33.4401 25.1737 31.8394 26.9871C30.0839 28.976 27.6419 30.1183 25.0044 30.194C24.9141 30.1966 24.8238 30.1979 24.7335 30.1979C23.3124 30.1979 21.9044 29.8774 20.6292 29.2638L15.6724 30.3662C15.661 30.3684 15.6493 30.3679 15.6382 30.3646C15.6271 30.3614 15.617 30.3556 15.6086 30.3477C15.6002 30.3398 15.5938 30.3299 15.5899 30.3191C15.5861 30.3082 15.5848 30.2965 15.5864 30.2851L16.4237 25.2731C15.7091 23.9674 15.3102 22.4963 15.2672 21C15.1948 18.4715 16.1112 16.0663 17.8477 14.2272C19.6482 12.3203 22.107 11.2588 24.7417 11.2588H24.7886ZM24.7359 12.9019C24.6602 12.9019 24.5846 12.903 24.5085 12.9052C20.1947 13.0289 16.7859 16.6391 16.9097 20.9528C16.9475 22.27 17.3185 23.563 17.9828 24.6919L18.127 24.9366L17.5066 28.3376L20.8722 27.5431L21.1263 27.6754C22.2353 28.2524 23.4778 28.5548 24.7333 28.5548C24.8079 28.5548 24.8826 28.5538 24.9572 28.5516C29.271 28.4279 32.6798 24.8178 32.5561 20.504C32.4345 16.2664 28.9483 12.9019 24.7359 12.9019ZM21.4621 16.154C21.6204 16.1588 21.779 16.1633 21.9172 16.1735C22.0864 16.1856 22.2735 16.1993 22.4394 16.6008C22.6362 17.0776 23.0618 18.2679 23.1176 18.3886C23.1733 18.5093 23.2087 18.6494 23.1246 18.8058C23.0405 18.962 22.9978 19.0599 22.875 19.195C22.752 19.3303 22.6157 19.4973 22.5058 19.6005C22.3829 19.7155 22.2552 19.8405 22.3866 20.0826C22.5179 20.3249 22.9708 21.118 23.6578 21.7701C24.5408 22.6081 25.2489 22.8846 25.5302 23.0158C25.6316 23.0632 25.716 23.0856 25.7897 23.0856C25.8908 23.0856 25.9718 23.0433 26.049 22.965C26.197 22.815 26.6423 22.2953 26.8298 22.0563C26.9279 21.9312 27.0167 21.8869 27.1132 21.8869C27.1904 21.8869 27.2725 21.9153 27.3682 21.9535C27.5836 22.0395 28.7341 22.6507 28.9681 22.777C29.2021 22.9031 29.3586 22.9675 29.415 23.0684C29.4714 23.1697 29.4566 23.6456 29.2416 24.1948C29.0265 24.744 28.04 25.2498 27.6031 25.276C27.4752 25.2837 27.3494 25.3016 27.1855 25.3016C26.7897 25.3016 26.1723 25.1973 24.77 24.5934C22.3842 23.566 20.9353 21.0414 20.8213 20.8792C20.7076 20.7167 19.8907 19.5599 19.9267 18.3898C19.9626 17.2198 20.5942 16.6633 20.8194 16.432C21.0352 16.2102 21.2825 16.1536 21.4422 16.1536L21.4621 16.154Z" fill="white"/>
<path id="Vector_3" d="M49.9736 19.7813H51.7976C51.7416 19.2853 51.6056 18.8453 51.3896 18.4613C51.1736 18.0773 50.8976 17.7573 50.5616 17.5013C50.2336 17.2373 49.8577 17.0373 49.4337 16.9013C49.0177 16.7653 48.5737 16.6973 48.1017 16.6973C47.4457 16.6973 46.8536 16.8133 46.3256 17.0453C45.8056 17.2773 45.3656 17.5973 45.0056 18.0053C44.6456 18.4133 44.3697 18.8933 44.1777 19.4453C43.9857 19.9893 43.8896 20.5813 43.8896 21.2213C43.8896 21.8453 43.9857 22.4293 44.1777 22.9733C44.3697 23.5093 44.6456 23.9773 45.0056 24.3773C45.3656 24.7773 45.8056 25.0933 46.3256 25.3253C46.8536 25.5493 47.4457 25.6613 48.1017 25.6613C48.6297 25.6613 49.1136 25.5813 49.5536 25.4213C49.9936 25.2613 50.3777 25.0293 50.7057 24.7253C51.0337 24.4213 51.2977 24.0533 51.4977 23.6213C51.6976 23.1893 51.8216 22.7053 51.8696 22.1693H50.0457C49.9737 22.7453 49.7736 23.2093 49.4456 23.5613C49.1256 23.9133 48.6777 24.0893 48.1017 24.0893C47.6777 24.0893 47.3176 24.0093 47.0216 23.8493C46.7256 23.6813 46.4857 23.4613 46.3017 23.1893C46.1177 22.9173 45.9817 22.6133 45.8937 22.2773C45.8137 21.9333 45.7737 21.5813 45.7737 21.2213C45.7737 20.8453 45.8137 20.4813 45.8937 20.1293C45.9817 19.7773 46.1177 19.4653 46.3017 19.1933C46.4857 18.9133 46.7256 18.6933 47.0216 18.5333C47.3176 18.3653 47.6777 18.2813 48.1017 18.2813C48.3337 18.2813 48.5536 18.3213 48.7617 18.4013C48.9777 18.4733 49.1697 18.5773 49.3377 18.7133C49.5057 18.8493 49.6456 19.0093 49.7576 19.1933C49.8696 19.3693 49.9416 19.5653 49.9736 19.7813ZM52.9762 16.9013V25.4693H54.6801V22.2173C54.6801 21.5853 54.7841 21.1333 54.9921 20.8613C55.2001 20.5813 55.5361 20.4413 56.0001 20.4413C56.4081 20.4413 56.6922 20.5693 56.8521 20.8253C57.0121 21.0733 57.0921 21.4533 57.0921 21.9653V25.4693H58.7962V21.6533C58.7962 21.2693 58.7601 20.9213 58.6881 20.6093C58.6241 20.2893 58.5081 20.0213 58.3401 19.8053C58.1721 19.5813 57.9401 19.4093 57.6441 19.2893C57.3561 19.1613 56.9841 19.0973 56.5281 19.0973C56.2081 19.0973 55.8802 19.1813 55.5442 19.3493C55.2082 19.5093 54.9321 19.7693 54.7161 20.1293H54.6801V16.9013H52.9762ZM60.0174 21.1733C60.0414 20.7733 60.1415 20.4413 60.3175 20.1773C60.4935 19.9133 60.7174 19.7013 60.9894 19.5413C61.2614 19.3813 61.5655 19.2693 61.9015 19.2053C62.2455 19.1333 62.5894 19.0973 62.9334 19.0973C63.2454 19.0973 63.5615 19.1213 63.8815 19.1693C64.2015 19.2093 64.4935 19.2933 64.7575 19.4213C65.0215 19.5493 65.2374 19.7293 65.4054 19.9613C65.5734 20.1853 65.6574 20.4853 65.6574 20.8613V24.0893C65.6574 24.3693 65.6734 24.6373 65.7054 24.8933C65.7374 25.1493 65.7935 25.3413 65.8735 25.4693H64.1455C64.1135 25.3733 64.0855 25.2773 64.0615 25.1813C64.0455 25.0778 64.0335 24.9737 64.0254 24.8693C63.7534 25.1493 63.4334 25.3453 63.0654 25.4573C62.6974 25.5693 62.3215 25.6253 61.9375 25.6253C61.6415 25.6253 61.3655 25.5893 61.1095 25.5173C60.8535 25.4453 60.6294 25.3333 60.4375 25.1813C60.2455 25.0293 60.0934 24.8373 59.9814 24.6053C59.8774 24.3733 59.8255 24.0973 59.8255 23.7773C59.8255 23.4253 59.8855 23.1373 60.0055 22.9133C60.1335 22.6813 60.2935 22.4973 60.4855 22.3613C60.6855 22.2253 60.9094 22.1253 61.1574 22.0613C61.4134 21.9893 61.6694 21.9333 61.9254 21.8933C62.1814 21.8533 62.4335 21.8213 62.6814 21.7973C62.9294 21.7733 63.1495 21.7373 63.3414 21.6893C63.5334 21.6413 63.6855 21.5733 63.7975 21.4853C63.9095 21.3893 63.9614 21.2533 63.9534 21.0773C63.9534 20.8933 63.9214 20.7493 63.8574 20.6453C63.8014 20.5333 63.7215 20.4493 63.6175 20.3933C63.5215 20.3293 63.4055 20.2893 63.2695 20.2733C63.1415 20.2493 63.0014 20.2373 62.8494 20.2373C62.5134 20.2373 62.2494 20.3093 62.0574 20.4533C61.8654 20.5973 61.7535 20.8373 61.7215 21.1733H60.0174ZM63.9534 22.4333C63.8814 22.4973 63.7894 22.5493 63.6774 22.5893C63.5734 22.6213 63.4574 22.6493 63.3294 22.6733C63.2094 22.6973 63.0814 22.7173 62.9454 22.7333C62.8095 22.7493 62.6734 22.7693 62.5374 22.7933C62.4094 22.8173 62.2815 22.8493 62.1535 22.8893C62.0334 22.9293 61.9254 22.9853 61.8294 23.0573C61.7414 23.1213 61.6694 23.2053 61.6134 23.3093C61.5574 23.4133 61.5294 23.5453 61.5294 23.7053C61.5294 23.8573 61.5574 23.9853 61.6134 24.0893C61.6673 24.1909 61.7457 24.2775 61.8414 24.3413C61.9375 24.3973 62.0494 24.4373 62.1774 24.4613C62.3054 24.4853 62.4374 24.4973 62.5734 24.4973C62.9094 24.4973 63.1695 24.4413 63.3535 24.3293C63.5375 24.2173 63.6734 24.0853 63.7614 23.9333C63.8494 23.7733 63.9014 23.6133 63.9174 23.4533C63.9415 23.2933 63.9534 23.1653 63.9534 23.0693V22.4333ZM69.14 19.2653V17.4053H67.436V19.2653H66.404V20.4053H67.436V24.0653C67.436 24.3773 67.4881 24.6293 67.5921 24.8213C67.6961 25.0133 67.8361 25.1613 68.0121 25.2653C68.1961 25.3693 68.4041 25.4373 68.6361 25.4693C68.8761 25.5093 69.128 25.5293 69.392 25.5293C69.56 25.5293 69.732 25.5253 69.908 25.5173C70.084 25.5093 70.2441 25.4933 70.3881 25.4693V24.1493C70.3081 24.1653 70.2241 24.1773 70.1361 24.1853C70.0481 24.1933 69.9561 24.1973 69.8601 24.1973C69.5721 24.1973 69.38 24.1493 69.284 24.0533C69.188 23.9573 69.14 23.7653 69.14 23.4773V20.4053H70.3881V19.2653H69.14ZM76.0506 22.3733C76.0506 22.1253 76.0746 21.8813 76.1226 21.6413C76.1706 21.4013 76.2507 21.1893 76.3627 21.0053C76.4827 20.8213 76.6386 20.6733 76.8306 20.5613C77.0226 20.4413 77.2626 20.3813 77.5506 20.3813C77.8386 20.3813 78.0786 20.4413 78.2706 20.5613C78.4706 20.6733 78.6267 20.8213 78.7387 21.0053C78.8587 21.1893 78.9426 21.4013 78.9907 21.6413C79.0387 21.8813 79.0626 22.1253 79.0626 22.3733C79.0626 22.6213 79.0387 22.8653 78.9907 23.1053C78.9426 23.3373 78.8587 23.5493 78.7387 23.7413C78.6267 23.9253 78.4706 24.0733 78.2706 24.1853C78.0786 24.2973 77.8386 24.3533 77.5506 24.3533C77.2626 24.3533 77.0226 24.2973 76.8306 24.1853C76.6386 24.0733 76.4827 23.9253 76.3627 23.7413C76.2507 23.5493 76.1706 23.3373 76.1226 23.1053C76.0746 22.8653 76.0506 22.6213 76.0506 22.3733ZM74.3467 22.3733C74.3467 22.8693 74.4226 23.3173 74.5746 23.7173C74.7267 24.1173 74.9427 24.4613 75.2227 24.7493C75.5027 25.0293 75.8386 25.2453 76.2306 25.3973C76.6226 25.5493 77.0626 25.6253 77.5506 25.6253C78.0386 25.6253 78.4786 25.5493 78.8706 25.3973C79.2706 25.2453 79.6107 25.0293 79.8907 24.7493C80.1707 24.4613 80.3866 24.1173 80.5386 23.7173C80.6906 23.3173 80.7667 22.8693 80.7667 22.3733C80.7667 21.8773 80.6906 21.4293 80.5386 21.0293C80.3866 20.6213 80.1707 20.2773 79.8907 19.9973C79.6107 19.7093 79.2706 19.4893 78.8706 19.3373C78.4786 19.1773 78.0386 19.0973 77.5506 19.0973C77.0626 19.0973 76.6226 19.1773 76.2306 19.3373C75.8386 19.4893 75.5027 19.7093 75.2227 19.9973C74.9427 20.2773 74.7267 20.6213 74.5746 21.0293C74.4226 21.4293 74.3467 21.8773 74.3467 22.3733ZM81.8747 19.2653V25.4693H83.5786V22.2173C83.5786 21.5853 83.6827 21.1333 83.8907 20.8613C84.0987 20.5813 84.4346 20.4413 84.8986 20.4413C85.3066 20.4413 85.5907 20.5693 85.7507 20.8253C85.9107 21.0733 85.9907 21.4533 85.9907 21.9653V25.4693H87.6947V21.6533C87.6947 21.2693 87.6586 20.9213 87.5867 20.6093C87.5227 20.2893 87.4067 20.0213 87.2387 19.8053C87.0707 19.5813 86.8387 19.4093 86.5427 19.2893C86.2547 19.1613 85.8826 19.0973 85.4266 19.0973C85.0666 19.0973 84.7146 19.1813 84.3706 19.3493C84.0266 19.5093 83.7467 19.7693 83.5307 20.1293H83.4946V19.2653H81.8747ZM100.668 25.4693L102.972 16.9013H101.124L99.7198 22.8053H99.6958L98.2317 16.9013H96.4677L94.9797 22.7333H94.9558L93.5998 16.9013H91.7157L93.9838 25.4693H95.8918L97.3198 19.6373H97.3437L98.7957 25.4693H100.668ZM103.66 16.9013V25.4693H105.364V22.2173C105.364 21.5853 105.468 21.1333 105.676 20.8613C105.884 20.5813 106.22 20.4413 106.684 20.4413C107.092 20.4413 107.376 20.5693 107.536 20.8253C107.696 21.0733 107.776 21.4533 107.776 21.9653V25.4693H109.48V21.6533C109.48 21.2693 109.444 20.9213 109.372 20.6093C109.308 20.2893 109.192 20.0213 109.024 19.8053C108.856 19.5813 108.624 19.4093 108.328 19.2893C108.04 19.1613 107.668 19.0973 107.212 19.0973C106.892 19.0973 106.564 19.1813 106.228 19.3493C105.892 19.5093 105.616 19.7693 105.4 20.1293H105.364V16.9013H103.66ZM110.701 21.1733C110.725 20.7733 110.825 20.4413 111.001 20.1773C111.177 19.9133 111.401 19.7013 111.673 19.5413C111.945 19.3813 112.249 19.2693 112.585 19.2053C112.929 19.1333 113.273 19.0973 113.617 19.0973C113.929 19.0973 114.245 19.1213 114.565 19.1693C114.885 19.2093 115.177 19.2933 115.441 19.4213C115.705 19.5493 115.921 19.7293 116.089 19.9613C116.257 20.1853 116.341 20.4853 116.341 20.8613V24.0893C116.341 24.3693 116.357 24.6373 116.389 24.8933C116.421 25.1493 116.477 25.3413 116.557 25.4693H114.829C114.797 25.3733 114.769 25.2773 114.745 25.1813C114.729 25.0778 114.717 24.9737 114.709 24.8693C114.437 25.1493 114.117 25.3453 113.749 25.4573C113.381 25.5693 113.005 25.6253 112.621 25.6253C112.325 25.6253 112.049 25.5893 111.793 25.5173C111.537 25.4453 111.313 25.3333 111.121 25.1813C110.929 25.0293 110.777 24.8373 110.665 24.6053C110.561 24.3733 110.509 24.0973 110.509 23.7773C110.509 23.4253 110.569 23.1373 110.689 22.9133C110.817 22.6813 110.977 22.4973 111.169 22.3613C111.369 22.2253 111.593 22.1253 111.841 22.0613C112.097 21.9893 112.353 21.9333 112.609 21.8933C112.865 21.8533 113.117 21.8213 113.365 21.7973C113.613 21.7733 113.833 21.7373 114.025 21.6893C114.217 21.6413 114.369 21.5733 114.481 21.4853C114.593 21.3893 114.645 21.2533 114.637 21.0773C114.637 20.8933 114.605 20.7493 114.541 20.6453C114.485 20.5333 114.405 20.4493 114.301 20.3933C114.205 20.3293 114.089 20.2893 113.953 20.2733C113.825 20.2493 113.685 20.2373 113.533 20.2373C113.197 20.2373 112.933 20.3093 112.741 20.4533C112.549 20.5973 112.437 20.8373 112.405 21.1733H110.701ZM114.637 22.4333C114.565 22.4973 114.473 22.5493 114.361 22.5893C114.257 22.6213 114.141 22.6493 114.013 22.6733C113.893 22.6973 113.765 22.7173 113.629 22.7333C113.493 22.7493 113.357 22.7693 113.221 22.7933C113.093 22.8173 112.965 22.8493 112.837 22.8893C112.717 22.9293 112.609 22.9853 112.513 23.0573C112.425 23.1213 112.353 23.2053 112.297 23.3093C112.241 23.4133 112.213 23.5453 112.213 23.7053C112.213 23.8573 112.241 23.9853 112.297 24.0893C112.351 24.1909 112.429 24.2775 112.525 24.3413C112.621 24.3973 112.733 24.4373 112.861 24.4613C112.989 24.4853 113.121 24.4973 113.257 24.4973C113.593 24.4973 113.853 24.4413 114.037 24.3293C114.221 24.2173 114.357 24.0853 114.445 23.9333C114.533 23.7733 114.585 23.6133 114.601 23.4533C114.625 23.2933 114.637 23.1653 114.637 23.0693V22.4333ZM119.824 19.2653V17.4053H118.12V19.2653H117.088V20.4053H118.12V24.0653C118.12 24.3773 118.172 24.6293 118.276 24.8213C118.38 25.0133 118.52 25.1613 118.696 25.2653C118.88 25.3693 119.088 25.4373 119.32 25.4693C119.56 25.5093 119.812 25.5293 120.076 25.5293C120.244 25.5293 120.416 25.5253 120.592 25.5173C120.768 25.5093 120.928 25.4933 121.072 25.4693V24.1493C120.992 24.1653 120.908 24.1773 120.82 24.1853C120.732 24.1933 120.64 24.1973 120.544 24.1973C120.256 24.1973 120.064 24.1493 119.968 24.0533C119.872 23.9573 119.824 23.7653 119.824 23.4773V20.4053H121.072V19.2653H119.824ZM123.202 23.4533H121.582C121.598 23.8693 121.69 24.2173 121.858 24.4973C122.034 24.7693 122.254 24.9893 122.518 25.1573C122.79 25.3253 123.098 25.4453 123.442 25.5173C123.786 25.5893 124.138 25.6253 124.498 25.6253C124.85 25.6253 125.194 25.5893 125.53 25.5173C125.874 25.4533 126.178 25.3373 126.442 25.1693C126.706 25.0013 126.918 24.7813 127.078 24.5093C127.246 24.2293 127.33 23.8853 127.33 23.4773C127.33 23.1893 127.274 22.9493 127.162 22.7573C127.05 22.5573 126.902 22.3933 126.718 22.2653C126.534 22.1293 126.322 22.0213 126.082 21.9413C125.85 21.8613 125.61 21.7933 125.362 21.7373C125.122 21.6813 124.886 21.6293 124.654 21.5813C124.422 21.5333 124.214 21.4813 124.03 21.4253C123.854 21.3613 123.71 21.2813 123.598 21.1853C123.486 21.0893 123.43 20.9653 123.43 20.8133C123.43 20.6853 123.462 20.5853 123.526 20.5133C123.59 20.4333 123.666 20.3733 123.754 20.3333C123.85 20.2933 123.954 20.2693 124.066 20.2613C124.178 20.2453 124.282 20.2373 124.378 20.2373C124.682 20.2373 124.946 20.2973 125.17 20.4173C125.394 20.5293 125.518 20.7493 125.542 21.0773H127.162C127.13 20.6933 127.03 20.3773 126.862 20.1293C126.702 19.8733 126.498 19.6693 126.25 19.5173C126.002 19.3653 125.718 19.2573 125.398 19.1933C125.086 19.1293 124.762 19.0973 124.426 19.0973C124.09 19.0973 123.762 19.1293 123.442 19.1933C123.122 19.2493 122.834 19.3533 122.578 19.5053C122.322 19.6493 122.114 19.8493 121.954 20.1053C121.802 20.3613 121.726 20.6893 121.726 21.0893C121.726 21.3613 121.782 21.5933 121.894 21.7853C122.006 21.9693 122.154 22.1253 122.338 22.2533C122.522 22.3733 122.73 22.4733 122.962 22.5533C123.202 22.6253 123.446 22.6893 123.694 22.7453C124.302 22.8733 124.774 23.0013 125.11 23.1293C125.454 23.2573 125.626 23.4493 125.626 23.7053C125.626 23.8573 125.59 23.9853 125.518 24.0893C125.446 24.1853 125.354 24.2653 125.242 24.3293C125.138 24.3853 125.018 24.4293 124.882 24.4613C124.754 24.4853 124.63 24.4973 124.51 24.4973C124.342 24.4973 124.178 24.4773 124.018 24.4373C123.866 24.3973 123.73 24.3373 123.61 24.2573C123.49 24.1693 123.39 24.0613 123.31 23.9333C123.238 23.7973 123.202 23.6373 123.202 23.4533ZM130.668 22.1573L131.784 19.0133H131.808L132.888 22.1573H130.668ZM130.848 16.9013L127.608 25.4693H129.504L130.176 23.5613H133.38L134.028 25.4693H135.984L132.78 16.9013H130.848ZM139.675 24.3533C139.403 24.3533 139.171 24.2973 138.979 24.1853C138.787 24.0733 138.631 23.9293 138.511 23.7533C138.399 23.5693 138.315 23.3573 138.259 23.1173C138.211 22.8773 138.187 22.6333 138.187 22.3853C138.187 22.1293 138.211 21.8813 138.259 21.6413C138.307 21.4013 138.387 21.1893 138.499 21.0053C138.619 20.8213 138.771 20.6733 138.955 20.5613C139.147 20.4413 139.383 20.3813 139.663 20.3813C139.935 20.3813 140.163 20.4413 140.347 20.5613C140.539 20.6733 140.695 20.8253 140.815 21.0173C140.935 21.2013 141.019 21.4133 141.067 21.6533C141.123 21.8933 141.151 22.1373 141.151 22.3853C141.151 22.6333 141.127 22.8773 141.079 23.1173C141.031 23.3573 140.947 23.5693 140.827 23.7533C140.715 23.9293 140.563 24.0733 140.371 24.1853C140.187 24.2973 139.955 24.3533 139.675 24.3533ZM136.543 19.2653V27.6413H138.247V24.7013H138.271C138.479 25.0053 138.743 25.2373 139.063 25.3973C139.391 25.5493 139.747 25.6253 140.131 25.6253C140.587 25.6253 140.983 25.5373 141.319 25.3613C141.663 25.1853 141.947 24.9493 142.171 24.6533C142.403 24.3573 142.575 24.0173 142.687 23.6333C142.799 23.2493 142.855 22.8493 142.855 22.4333C142.855 21.9933 142.799 21.5733 142.687 21.1733C142.575 20.7653 142.403 20.4093 142.171 20.1053C141.939 19.8013 141.647 19.5573 141.295 19.3733C140.943 19.1893 140.523 19.0973 140.035 19.0973C139.651 19.0973 139.299 19.1733 138.979 19.3253C138.659 19.4773 138.395 19.7213 138.187 20.0573H138.163V19.2653H136.543ZM147.01 24.3533C146.738 24.3533 146.506 24.2973 146.314 24.1853C146.122 24.0733 145.966 23.9293 145.846 23.7533C145.734 23.5693 145.65 23.3573 145.594 23.1173C145.546 22.8773 145.522 22.6333 145.522 22.3853C145.522 22.1293 145.546 21.8813 145.594 21.6413C145.642 21.4013 145.722 21.1893 145.834 21.0053C145.954 20.8213 146.106 20.6733 146.29 20.5613C146.482 20.4413 146.718 20.3813 146.998 20.3813C147.27 20.3813 147.498 20.4413 147.682 20.5613C147.874 20.6733 148.03 20.8253 148.15 21.0173C148.27 21.2013 148.354 21.4133 148.402 21.6533C148.458 21.8933 148.486 22.1373 148.486 22.3853C148.486 22.6333 148.462 22.8773 148.414 23.1173C148.366 23.3573 148.282 23.5693 148.162 23.7533C148.05 23.9293 147.898 24.0733 147.706 24.1853C147.522 24.2973 147.29 24.3533 147.01 24.3533ZM143.878 19.2653V27.6413H145.582V24.7013H145.606C145.814 25.0053 146.078 25.2373 146.398 25.3973C146.726 25.5493 147.082 25.6253 147.466 25.6253C147.922 25.6253 148.318 25.5373 148.654 25.3613C148.998 25.1853 149.282 24.9493 149.506 24.6533C149.738 24.3573 149.91 24.0173 150.022 23.6333C150.134 23.2493 150.19 22.8493 150.19 22.4333C150.19 21.9933 150.134 21.5733 150.022 21.1733C149.91 20.7653 149.738 20.4093 149.506 20.1053C149.274 19.8013 148.982 19.5573 148.63 19.3733C148.278 19.1893 147.858 19.0973 147.37 19.0973C146.986 19.0973 146.634 19.1733 146.314 19.3253C145.994 19.4773 145.73 19.7213 145.522 20.0573H145.498V19.2653H143.878Z" fill="white"/>
</g>
<defs>
<filter id="filter0_dd_5253_59509" x="0" y="0.469727" width="166" height="42" filterUnits="userSpaceOnUse" color-interpolation-filters="sRGB">
<feFlood flood-opacity="0" result="BackgroundImageFix"/>
<feColorMatrix in="SourceAlpha" type="matrix" values="0 0 0 0 0 0 0 0 0 0 0 0 0 0 0 0 0 0 127 0" result="hardAlpha"/>
<feOffset dy="1"/>
<feGaussianBlur stdDeviation="1"/>
<feColorMatrix type="matrix" values="0 0 0 0 0 0 0 0 0 0 0 0 0 0 0 0 0 0 0.06 0"/>
<feBlend mode="normal" in2="BackgroundImageFix" result="effect1_dropShadow_5253_59509"/>
<feColorMatrix in="SourceAlpha" type="matrix" values="0 0 0 0 0 0 0 0 0 0 0 0 0 0 0 0 0 0 127 0" result="hardAlpha"/>
<feOffset dy="1"/>
<feGaussianBlur stdDeviation="1.5"/>
<feColorMatrix type="matrix" values="0 0 0 0 0 0 0 0 0 0 0 0 0 0 0 0 0 0 0.1 0"/>
<feBlend mode="normal" in2="effect1_dropShadow_5253_59509" result="effect2_dropShadow_5253_59509"/>
<feBlend mode="normal" in="SourceGraphic" in2="effect2_dropShadow_5253_59509" result="shape"/>
</filter>
<clipPath id="clip0_5253_59509">
<rect width="160" height="36" fill="white" transform="translate(3 2.46973)"/>
</clipPath>
</defs>
</svg>
