<svg width="27" height="20" viewBox="0 0 27 20" fill="none" xmlns="http://www.w3.org/2000/svg">
<g id="Group 7545">
<path id="Icon" d="M26.1124 3.40343C25.9616 2.83604 25.6644 2.3182 25.2506 1.90175C24.8368 1.48529 24.3209 1.18482 23.7545 1.0304C21.6694 0.469727 13.335 0.469727 13.335 0.469727C13.335 0.469727 5.00063 0.469727 2.91552 1.0304C2.3491 1.18482 1.83318 1.48529 1.41939 1.90175C1.00559 2.3182 0.708428 2.83604 0.557646 3.40343C6.62357e-08 5.49763 0 9.86484 0 9.86484C0 9.86484 6.62357e-08 14.2321 0.557646 16.3263C0.708428 16.8936 1.00559 17.4115 1.41939 17.8279C1.83318 18.2444 2.3491 18.5449 2.91552 18.6993C5.00063 19.26 13.335 19.26 13.335 19.26C13.335 19.26 21.6694 19.26 23.7545 18.6993C24.3209 18.5449 24.8368 18.2444 25.2506 17.8279C25.6644 17.4115 25.9616 16.8936 26.1124 16.3263C26.67 14.2321 26.67 9.86484 26.67 9.86484C26.67 9.86484 26.67 5.49763 26.1124 3.40343Z" fill="#FF0302"/>
<path id="Icon_2" d="M10.6074 13.8307V5.89941L17.578 9.86506L10.6074 13.8307Z" fill="#FEFEFE"/>
</g>
</svg>
